<svg filter="url(#colors7889672265)" x="0" y="0" width="60.00000000000019" height="60.03241750545313" filtersec="colorsf5585477124" class="image-svg-svg primary" style="overflow: visible;"><svg xmlns="http://www.w3.org/2000/svg" viewBox="0 0 278.489990234375 278.6399841308594"><g><g fill="#ffffff"><path d="M189.92 269.17c2.56-1 5.07-2.07 7.55-3.21 11.34-11.6 63-64.48 69.79-71.35.27-.62.53-1.24.8-1.87-8.66 8.5-65.14 63.72-78.14 76.43zM166.11 276.06l49.25-49.25 1.29 1.29 59.15-60.5c.06-.29.12-.58.17-.87L163.7 276.51c.81-.14 1.61-.3 2.41-.45zM217.16 206.74l1.26 1.26 60.07-61.42v-.61L142.9 278.59l2.5-.09zM215.36 190.26l1.3 1.29 61.61-63v-.54c-52.49 51.3-100.62 98.38-153.3 149.91.86.09 1.71.16 2.57.23zM211.1 176.25l1.33 1.33c54.11-55.33 42.45-43.4 63.66-65.1 0-.19-.07-.38-.11-.57 0 0-83.53 81.69-167.09 163.38l2.61.56zM204.06 165l1.42 1.41 67-68.48-.21-.65-177.9 173.94c.87.3 1.75.58 2.63.86zM194.22 156.59l1.53 1.52 71.81-73.44-.33-.75L81.1 265.91c.87.4 1.74.79 2.62 1.17zM185.78 146.75l1.62 1.62 74.23-75.91-.48-.86-192.23 188 2.58 1.4zM173.13 141.13l1.76 1.76c78.85-80.63 45.67-46.69 79.87-81.68-.22-.33-.45-.65-.68-1-71.11 69.52-15.19 14.88-196.37 192 .84.61 1.68 1.21 2.53 1.8zM160.48 135.5l1.9 1.91L247 50.86l-.92-1.1c-.86.88-194.64 190.33-198.65 194.24.8.7 1.62 1.4 2.44 2.09zM38 234.94c.77.82 1.55 1.62 2.34 2.42L144 133.68l2.1 2.1 92.31-94.42-1.2-1.21C235.42 41.92 39.76 233.2 38 234.94zM29.57 225.13c.69.88 1.4 1.76 2.11 2.63l94.08-94.08 2.3 2.29c30.31-31 56.22-57.47 101-103.28-.51-.44-1-.87-1.54-1.29-.85.82-184.79 180.6-197.95 193.73zM22 214.44c.62 1 1.25 1.92 1.89 2.86l89.24-89.24 2.44 2.44L218.83 24.85l-1.94-1.33C15 220.9 43.8 192.62 22 214.44zM15.3 202.84c.54 1 1.09 2.08 1.65 3.11L101.87 121l2.56 2.56C194.06 31.91 189 37.13 207.77 17.9c-.81-.46-1.62-.91-2.44-1.35C11.69 206 51.5 166.65 15.3 202.84zM9.62 190.26c.44 1.13.9 2.26 1.37 3.37l81-81 2.68 2.68C186.48 21.43 169.35 39 195.79 11.88c-1-.45-2-.89-3-1.31C21.92 177.36 34.74 165.13 9.62 190.26zM5.05 176.56c.34 1.23.69 2.46 1.07 3.68l77.47-77.48 2.78 2.78 96.46-98.65c-1.26-.42-2.53-.81-3.81-1.19C14.49 166.56 48.62 133 5.05 176.56zM1.78 161.55c.21 1.36.45 2.7.71 4l72.67-72.63L78 95.79l90.67-92.73c-1.54-.33-3.1-.65-4.66-.93C17 145.88 47.51 115.82 1.78 161.55zM.12 144.93c.06 1.51.14 3 .25 4.51l70.57-70.58 2.92 2.92L153.18.64q-2.93-.29-5.87-.45C19.39 125.24 48.83 96.23.12 144.93zM.62 126.17q-.24 2.55-.39 5.13l67.9-67.9 3 3L136 0q-3.81.09-7.58.38C21.59 104.8 49.34 77.45.62 126.17zM4.52 104q-.81 3.07-1.47 6.21l67.89-67.89 2.92 2.92 42.4-43.37q-5.17.87-10.21 2.1C25.54 82.68 47.88 60.63 4.52 104zM16.21 74q-2.4 4.52-4.47 9.22L83.29 11.7c-2.54 1.12-5 2.3-7.5 3.56C31.68 58.4 44.9 45.34 16.21 74zM216.65 228.1l-46 47a136.93 136.93 0 0 0 13.87-4l37.56-37.56z" /><path d="M216.65 228.1l-1.29-1.29-49.25 49.25c1.54-.3 3.07-.62 4.58-1zM218.42 208l-68.7 70.25c3.59-.26 7.13-.66 10.64-1.19l63.56-63.56z" /><path d="M145.4 278.5c1.44-.06 2.89-.14 4.32-.25l68.7-70.25-1.26-1.26zM216.66 191.55c-16 16.4-4.3 4.41-85 86.88 2.53.13 5.08.21 7.65.21h1.18l81.6-81.6z" /><path d="M127.49 278.13c1.4.12 2.79.22 4.2.3 84-85.87 69.29-70.83 85-86.88l-1.3-1.29zM212.43 177.58c-19.41 19.84-1.32 1.33-96.82 99q3.75.63 7.56 1.08L217.86 183z" /><path d="M111.5 275.85c1.36.28 2.73.53 4.11.77 95.53-97.73 77.38-79.17 96.82-99l-1.33-1.33zM205.48 166.43L101 273.29c2.19.62 4.39 1.19 6.62 1.71l103.2-103.22z" /><path d="M97 272.08c1.32.42 2.65.83 4 1.21l104.5-106.86-1.44-1.43zM195.75 158.11L87.61 268.71c1.92.77 3.86 1.49 5.83 2.18L201 163.35zM83.72 267.08c1.29.56 2.58 1.11 3.89 1.63l108.14-110.6-1.53-1.52zM187.4 148.37L75.26 263.05q2.56 1.33 5.19 2.56l112.09-112.1zM71.5 261c1.25.69 2.5 1.37 3.76 2L187.4 148.37l-1.62-1.62zM174.89 142.89c-20 20.48.34-.36-111 113.56 1.51 1 3.05 1.92 4.61 2.84l111.4-111.4zM60.24 254c1.2.82 2.41 1.64 3.64 2.43l111-113.56-1.76-1.76zM162.38 137.41c-11.64 11.9.22-.24-109 111.53 1.35 1.06 2.73 2.09 4.12 3.1l109.74-109.77zM49.87 246.11c1.15 1 2.3 1.91 3.47 2.83 109.25-111.76 97.4-99.63 109-111.53l-1.9-1.91zM146.13 135.78L43.66 240.59q1.8 1.69 3.66 3.33L150.8 140.44z" /><path d="M40.36 237.36q1.62 1.63 3.3 3.23l102.47-104.81-2.1-2.1zM132.52 140.44l-4.46-4.44-93.28 95.39c1.06 1.2 2.13 2.38 3.23 3.54 1.69-1.65-6.01 6.07 94.51-94.49zM38 234.93l1.12-1.12z" /><path d="M125.76 133.68l-94.08 94.08c1 1.23 2 2.44 3.1 3.63L128.06 136zM119.87 134.82l-4.32-4.32-88.83 90.85q1.35 1.86 2.76 3.66c12.15-11.88-1.42 1.63 90.39-90.19z" /><path d="M29.48 225l.09.12 9-9.06zM113.11 128.06L23.87 217.3c.92 1.37 1.88 2.72 2.85 4l88.83-90.85zM108.63 127.79l-4.2-4.2-84.91 86.85q1.13 1.91 2.32 3.77c21.31-20.83 4.25-3.88 86.79-86.42z" /><path d="M21.84 214.21a1.76 1.76 0 0 0 .14.23l16.36-16.36zM101.87 121L17 206c.83 1.52 1.69 3 2.57 4.49l84.91-86.85zM98.79 119.36l-4.08-4.08-81.49 83.32c.62 1.31 1.25 2.62 1.91 3.9 29.36-28.7 12.22-11.7 83.66-83.14z" /><path d="M15.13 202.5l.17.34L38 180.15c-9.9 9.68-17.85 17.45-22.87 22.35zM92 112.6l-81 81c.71 1.68 1.46 3.33 2.23 5l81.49-83.32zM90.35 109.52l-4-4-78.41 80.23q.72 2 1.5 4.05c36.13-35.33 19.28-18.65 80.91-80.28z" /><path d="M9.44 189.8l.18.46 28.53-28.54c-12.3 12.03-22.36 21.88-28.71 28.08zM83.59 102.76L6.12 180.24Q7 183 7.94 185.75l78.43-80.21zM81.92 99.68L78 95.79 3.8 171.72c.34 1.42.7 2.83 1.08 4.24 41.84-40.9 24.28-23.51 77.04-76.28z" /><path d="M4.88 176c.06.2.11.4.17.6l33.89-33.9zM75.16 92.92L2.49 165.59q.58 3.09 1.31 6.13L78 95.79zM77.71 85.63l-3.85-3.85L1 156.27c.19 1.53.39 3.06.63 4.58 45.24-44.2 28.98-28.13 76.08-75.22z" /><path d="M1.66 160.85l.12.7 36.69-36.69zM70.94 78.86L.37 149.44c.16 2.29.39 4.57.66 6.83l72.83-74.49zM74.89 70.16l-3.8-3.8L0 139.07v.23c0 1.61 0 3.21.09 4.82 45.72-44.7 29.72-28.87 74.8-73.96z" /><path d="M.09 144.12v.81l38.06-38.06zM68.13 63.4L.23 131.3Q0 135.16 0 139.07l71.09-72.71zM77.71 49.08l-3.85-3.84-72.43 74.09c-.28 2-.53 3.92-.73 5.89 47.36-46.3 29.81-28.94 77.01-76.14z" /><path d="M.7 125.22c0 .32 0 .63-.08 1l38.64-38.7zM70.94 42.32L3.05 110.21q-1 4.52-1.62 9.12l72.43-74.09zM7.12 95.23c-.85 2.54-1.62 5.12-2.32 7.77C47.82 60.89 25.94 82.57 104 4.47Q98.07 6 92.33 8.1z" /><path d="M4.8 103c-.09.35-.19.7-.28 1L39 69.56zM83.29 11.7L11.74 83.25q-2.58 5.85-4.62 12L92.33 8.1c-3.07 1.09-6.08 2.3-9.04 3.6zM27.73 55.86A140.77 140.77 0 0 0 16.76 73C44.77 45.6 32 58.25 74.07 16.17a138.56 138.56 0 0 0-20.64 13.42z" /><path d="M16.76 73c-.19.34-.36.69-.55 1L39 51.24zM53.43 29.59a140.22 140.22 0 0 0-25.7 26.27z" /></g></g></svg></svg>